<?xml version="1.0" encoding="UTF-8"?>
<svg version="1.1" xmlns="http://www.w3.org/2000/svg" width="300" height="88">
<path d="M0 0 C99 0 198 0 300 0 C300 29.04 300 58.08 300 88 C201 88 102 88 0 88 C0 58.96 0 29.92 0 0 Z " fill="#FEFEFD" transform="translate(0,0)"/>
<path d="M0 0 C34.65 0 69.3 0 105 0 C105 20.13 105 40.26 105 61 C94.16291602 61 90.31885963 60.90793524 82.1875 55.0625 C81.21167969 54.37285156 80.23585938 53.68320312 79.23046875 52.97265625 C78.49441406 52.32167969 77.75835937 51.67070313 77 51 C77 50.01 77 49.02 77 48 C79.125 46.30859375 79.125 46.30859375 82 44.4375 C87.08446145 40.89934384 90.66923315 37.1582595 94.34375 32.19921875 C95.78653585 30.28344414 97.25829537 28.64081321 99 27 C97.69289063 27.30744141 97.69289063 27.30744141 96.359375 27.62109375 C89.31632565 29.21416444 82.54697332 30.37292765 75.328125 30.69140625 C72.80945486 30.78517107 72.80945486 30.78517107 71 33 C69.515 32.505 69.515 32.505 68 32 C70.625 28.125 70.625 28.125 74 27 C74 25.68 74 24.36 74 23 C72.35 22.67 70.7 22.34 69 22 C69 22.66 69 23.32 69 24 C68.113125 24.2475 67.22625 24.495 66.3125 24.75 C62.94675026 25.82357115 62.94675026 25.82357115 60.4375 28.0625 C57.85262422 30.11714485 56.23550518 30.63022798 53 31 C52.86408447 31.58426758 52.72816895 32.16853516 52.58813477 32.77050781 C51.68035577 36.21170242 50.27789769 39.45965021 48.9375 42.75 C48.65583984 43.44738281 48.37417969 44.14476562 48.08398438 44.86328125 C47.39166819 46.57647045 46.69615002 48.28836509 46 50 C40.3046875 50.1171875 40.3046875 50.1171875 37.5625 49.0625 C35.66825819 46.5621008 35.81533506 45.74616614 36.0625 42.6875 C36.6880356 38.69971052 37.93775841 35.49684444 40 32 C40.66 32 41.32 32 42 32 C42.66 24.08 43.32 16.16 44 8 C38.11467984 10.35412806 35.58161566 12.83676867 32.83203125 18.3359375 C30.59927039 23.57526804 29.4201299 28.32824639 29 34 C26.2852103 30.89738321 25.05038063 27.72896851 23.6953125 23.90625 C22.94503502 21.8493095 22.04262366 19.92484367 21 18 C20.34 18 19.68 18 19 18 C17.50618709 16.29781633 16.07902984 14.53677109 14.6875 12.75 C11.03878903 8.06676487 7.76433686 3.92144562 2 2 C2.33 2.99 2.66 3.98 3 5 C3.12781786 7.67394964 3.04391871 10.32095857 3 13 C2.67 13 2.34 13 2 13 C2 11.35 2 9.7 2 8 C1.01 7.67 0.02 7.34 -1 7 C-0.67 4.69 -0.34 2.38 0 0 Z " fill="#FCFEFB" transform="translate(195,0)"/>
<path d="M0 0 C4.58444014 0.93560003 6.89925797 3.261199 9.875 6.75 C11.0625 8.625 11.0625 8.625 11.0625 10.625 C11.7225 10.625 12.3825 10.625 13.0625 10.625 C14.3825 13.265 15.7025 15.905 17.0625 18.625 C17.7225 18.625 18.3825 18.625 19.0625 18.625 C19.0625 20.275 19.0625 21.925 19.0625 23.625 C19.7225 23.625 20.3825 23.625 21.0625 23.625 C21.0625 24.285 21.0625 24.945 21.0625 25.625 C21.7225 25.625 22.3825 25.625 23.0625 25.625 C23.145 26.24375 23.2275 26.8625 23.3125 27.5 C23.87508459 29.80937567 23.87508459 29.80937567 26.125 30.875 C26.764375 31.1225 27.40375 31.37 28.0625 31.625 C28.0625 32.285 28.0625 32.945 28.0625 33.625 C29.7125 33.625 31.3625 33.625 33.0625 33.625 C32.8975 32.325625 32.7325 31.02625 32.5625 29.6875 C32.0309362 24.97080713 31.98720459 20.36861065 32.0625 15.625 C34.4375 15.5 34.4375 15.5 37.0625 15.625 C41.21561581 19.77811581 40.24557988 26.27409285 40.25 31.8125 C40.26224609 32.63169922 40.27449219 33.45089844 40.28710938 34.29492188 C40.29232258 36.40626936 40.18526321 38.51721809 40.0625 40.625 C38.0625 42.625 38.0625 42.625 36.14534569 42.87109566 C35.35813448 42.86925207 34.57092327 42.86740849 33.75985718 42.86550903 C32.85679337 42.86825836 31.95372955 42.87100769 31.02330017 42.87384033 C29.53329247 42.8630545 29.53329247 42.8630545 28.01318359 42.85205078 C26.44729744 42.85248886 26.44729744 42.85248886 24.84977722 42.85293579 C21.38674715 42.85153842 17.92393016 42.83595797 14.4609375 42.8203125 C12.0648307 42.81658382 9.66872239 42.81373617 7.27261353 42.81173706 C0.95637831 42.80408918 -5.35976538 42.78443077 -11.67596436 42.7623291 C-18.11729697 42.74189552 -24.55864433 42.73274067 -31 42.72265625 C-43.64587361 42.70118598 -56.29167921 42.66703613 -68.9375 42.625 C-68.9375 39.655 -68.9375 36.685 -68.9375 33.625 C-67.6175 32.965 -66.2975 32.305 -64.9375 31.625 C-64.504375 31.17125 -64.07125 30.7175 -63.625 30.25 C-61.9292923 28.61709629 -60.4448352 27.77801235 -58.375 26.6875 C-55.34538139 25.03325218 -54.32236911 23.8208518 -52.9375 20.625 C-51.61229497 19.94231862 -50.27937818 19.2742959 -48.9375 18.625 C-48.6075 17.635 -48.2775 16.645 -47.9375 15.625 C-46.2875 15.295 -44.6375 14.965 -42.9375 14.625 C-42.9375 13.965 -42.9375 13.305 -42.9375 12.625 C-42.2775 12.625 -41.6175 12.625 -40.9375 12.625 C-40.875625 12.08875 -40.81375 11.5525 -40.75 11 C-39.5568416 7.5123062 -37.43062007 5.29620008 -34.9375 2.625 C-30.46495503 1.13415168 -26.41004497 1.13415168 -21.9375 2.625 C-21.25 4.6875 -21.25 4.6875 -20.9375 6.625 C-20.2775 6.625 -19.6175 6.625 -18.9375 6.625 C-18.26630451 8.0812545 -17.60068193 9.54007867 -16.9375 11 C-16.56625 11.81210937 -16.195 12.62421875 -15.8125 13.4609375 C-14.9375 15.625 -14.9375 15.625 -14.9375 17.625 C-13.2875 17.295 -11.6375 16.965 -9.9375 16.625 C-9.76734375 15.97273438 -9.5971875 15.32046875 -9.421875 14.6484375 C-5.69612069 1.21194057 -5.69612069 1.21194057 0 0 Z " fill="#FDFEFA" transform="translate(68.9375,45.375)"/>
<path d="M0 0 C4.70640857 0.21829353 6.6912468 2.31645241 9.70507812 5.61132812 C10.23552734 6.21396484 10.76597656 6.81660156 11.3125 7.4375 C11.86228516 8.03626953 12.41207031 8.63503906 12.97851562 9.25195312 C17 13.71305318 17 13.71305318 17 16 C17.66 16 18.32 16 19 16 C22.32608425 20.20024742 24.58163643 24.8423143 26 30 C26.23783203 28.83984375 26.23783203 28.83984375 26.48046875 27.65625 C28.35185058 19.30223607 30.97314499 11.44014581 38 6 C39.32 6 40.64 6 42 6 C42.3690205 22.8929385 42.3690205 22.8929385 40 30 C39.34 30 38.68 30 38 30 C37.49363393 31.74816858 36.99515381 33.49862263 36.5 35.25 C36.2215625 36.22453125 35.943125 37.1990625 35.65625 38.203125 C34.84771134 41.17023413 34.84771134 41.17023413 35 45 C38.18762365 47.12508244 40.26512223 47.5020163 44 48 C44.061875 47.21625 44.12375 46.4325 44.1875 45.625 C45.13239466 41.40931611 46.83508334 38.07081612 48.84375 34.26953125 C50.10500838 31.93311799 50.10500838 31.93311799 51 29 C52.7421875 27.9375 52.7421875 27.9375 54.875 27 C57.19429546 25.9730057 58.80091209 25.20202286 60.58984375 23.38671875 C62 22 62 22 64.6875 21.8125 C65.8321875 21.9053125 65.8321875 21.9053125 67 22 C67 21.34 67 20.68 67 20 C68.65 20 70.3 20 72 20 C72.495 22.475 72.495 22.475 73 25 C72.38125 25.268125 71.7625 25.53625 71.125 25.8125 C68.7004767 26.95556848 68.7004767 26.95556848 67 30 C67.75410156 29.53787109 67.75410156 29.53787109 68.5234375 29.06640625 C71.81292578 27.64995467 75.09891765 27.31894302 78.625 26.9375 C79.68654297 26.8139917 79.68654297 26.8139917 80.76953125 26.68798828 C86.17330242 26.06665303 91.58313672 25.49480963 97 25 C95.74830725 28.75507824 93.82358723 30.24058521 91 33 C90.2575 33.94875 89.515 34.8975 88.75 35.875 C85.46162949 39.90929482 81.32265849 43.12955095 77 46 C76.34 46 75.68 46 75 46 C75 46.99 75 47.98 75 49 C75.59296875 49.268125 76.1859375 49.53625 76.796875 49.8125 C79.00319031 51.0017196 80.4289894 52.29812094 82.25 54 C88.17156626 58.63328658 95.76753111 58.49091845 103 59 C103 59.66 103 60.32 103 61 C98.40294148 63.64647176 94.18540361 63.52011647 89 63 C86.97047945 62.4235214 85.11379662 61.68269534 83.17578125 60.8515625 C80.59183915 59.84025303 78.01136386 59.20626569 75.3125 58.5625 C69.76230761 57.23129903 64.34559055 55.60490999 58.91015625 53.8671875 C53.91412704 52.37843786 49.96085732 51.9915414 44.75 52.3125 C38.69694592 52.38824925 35.32377869 51.08446028 30.51171875 47.5078125 C30.01285156 47.01023438 29.51398438 46.51265625 29 46 C29 45.34 29 44.68 29 44 C28.2678125 43.89042969 27.535625 43.78085937 26.78125 43.66796875 C19.5376873 41.92829288 14.4260184 36.69059509 10 31 C9.236875 30.46375 8.47375 29.9275 7.6875 29.375 C7.130625 28.92125 6.57375 28.4675 6 28 C6 26.68 6 25.36 6 24 C5.34 24 4.68 24 4 24 C1.09169144 16.06159801 0.35161161 8.41442956 0 0 Z " fill="#7CF50D" transform="translate(197,2)"/>
<path d="M0 0 C-0.33 1.32 -0.66 2.64 -1 4 C-1.66 4 -2.32 4 -3 4 C-3 4.66 -3 5.32 -3 6 C-4.93552734 6.38091797 -4.93552734 6.38091797 -6.91015625 6.76953125 C-8.62768437 7.11679103 -10.34512788 7.46446954 -12.0625 7.8125 C-12.91005859 7.97814453 -13.75761719 8.14378906 -14.63085938 8.31445312 C-19.76351855 9.36476562 -24.26252948 10.75661165 -29 13 C-29 14.65 -29 16.3 -29 18 C-24.13681546 18.19452738 -20.5497359 17.68142414 -16 16 C-14.33911955 15.63893903 -12.67381019 15.29537827 -11 15 C-11 14.34 -11 13.68 -11 13 C-10.443125 12.773125 -9.88625 12.54625 -9.3125 12.3125 C-6.81800224 11.04508953 -6.81800224 11.04508953 -4.6875 8.5625 C-0.61396195 4.67842883 3.51128512 2.85665148 9.125 2.6875 C15.02650177 3.16342756 15.02650177 3.16342756 18 5 C19.1875 7.5625 19.1875 7.5625 20 10 C20.99 10.495 20.99 10.495 22 11 C24.69645899 15.54140461 24.01872381 20.01957248 23 25 C22 26 22 26 19.48802185 26.12025452 C18.37105423 26.11803391 17.25408661 26.11581329 16.10327148 26.11352539 C14.84203964 26.11344986 13.5808078 26.11337433 12.28135681 26.11329651 C10.89460206 26.1081891 9.50784771 26.10297309 8.12109375 26.09765625 C6.71004791 26.09579201 5.29900143 26.09436814 3.88795471 26.09336853 C0.16759465 26.08954379 -3.5527266 26.0797139 -7.27307129 26.06866455 C-11.06680781 26.05844948 -14.86055058 26.05387071 -18.65429688 26.04882812 C-26.10288231 26.03809158 -33.55143572 26.0210157 -41 26 C-41.26119629 25.31437988 -41.52239258 24.62875977 -41.79150391 23.92236328 C-42.14132324 23.02243652 -42.49114258 22.12250977 -42.8515625 21.1953125 C-43.19525879 20.30344238 -43.53895508 19.41157227 -43.89306641 18.49267578 C-45.11034085 15.75152623 -46.43099932 13.57562551 -48.875 11.76171875 C-53.95377636 9.94120149 -59.69624115 10.67305596 -65 11 C-65 11.66 -65 12.32 -65 13 C-70.47619048 18 -70.47619048 18 -73 18 C-73.1546875 19.175625 -73.1546875 19.175625 -73.3125 20.375 C-74 23 -74 23 -77 25 C-80.18743849 25.3390892 -82.30826181 25.30743919 -85.25 24 C-89.96734503 18.60874854 -89.24846024 10.73603328 -89 4 C-87.68 4 -86.36 4 -85 4 C-84.78085938 4.63808594 -84.56171875 5.27617188 -84.3359375 5.93359375 C-83.3728723 8.44304412 -82.42196269 10.71624175 -81 13 C-77.883975 14.21790719 -77.883975 14.21790719 -75 14 C-75 13.34 -75 12.68 -75 12 C-73.0625 10.625 -73.0625 10.625 -70 9 C-69.34515625 8.64292969 -68.6903125 8.28585938 -68.015625 7.91796875 C-62.22057463 5.01016865 -57.42981389 4.5167572 -51 5 C-51 5.66 -51 6.32 -51 7 C-50.43796875 7.25523438 -49.8759375 7.51046875 -49.296875 7.7734375 C-46.70613518 9.15692781 -44.54892155 10.79938583 -42.25 12.625 C-41.45078125 13.25664063 -40.6515625 13.88828125 -39.828125 14.5390625 C-39.22484375 15.02117187 -38.6215625 15.50328125 -38 16 C-37.34 14.35 -36.68 12.7 -36 11 C-35.34 11 -34.68 11 -34 11 C-34 10.01 -34 9.02 -34 8 C-32.6875 6.3125 -32.6875 6.3125 -31 5 C-30.01 5 -29.02 5 -28 5 C-28 4.34 -28 3.68 -28 3 C-18.63181742 -0.39925415 -9.80706267 -0.31042285 0 0 Z " fill="#FCFEF6" transform="translate(203,62)"/>
<path d="M0 0 C4.70640857 0.21829353 6.6912468 2.31645241 9.70507812 5.61132812 C10.23552734 6.21396484 10.76597656 6.81660156 11.3125 7.4375 C11.86228516 8.03626953 12.41207031 8.63503906 12.97851562 9.25195312 C17 13.71305318 17 13.71305318 17 16 C17.66 16 18.32 16 19 16 C22.32608425 20.20024742 24.58163643 24.8423143 26 30 C26.23783203 28.83984375 26.23783203 28.83984375 26.48046875 27.65625 C28.35185058 19.30223607 30.97314499 11.44014581 38 6 C39.32 6 40.64 6 42 6 C42.3690205 22.8929385 42.3690205 22.8929385 40 30 C39.34 30 38.68 30 38 30 C37.34 31.98 36.68 33.96 36 36 C35.34 36 34.68 36 34 36 C34 36.66 34 37.32 34 38 C33.34 38 32.68 38 32 38 C32 38.66 32 39.32 32 40 C28.32949162 42.44700559 26.71726369 42.37103522 22.4765625 41.8046875 C17.65969409 40.23958515 14.4712038 36.5450592 11 33 C10.44699219 32.505 9.89398438 32.01 9.32421875 31.5 C7.9375 30.25 7.9375 30.25 6 28 C6 26.68 6 25.36 6 24 C5.34 24 4.68 24 4 24 C1.09169144 16.06159801 0.35161161 8.41442956 0 0 Z " fill="#69EF0B" transform="translate(197,2)"/>
<path d="M0 0 C4.48598092 0.91550631 6.75031157 3.16701285 9.75 6.5 C12.35394323 10.71590809 13.35251678 14.69471482 13.0625 19.625 C9.26870942 18.13458227 7.37906242 15.93437488 5.0625 12.625 C5.0625 11.965 5.0625 11.305 5.0625 10.625 C3.0825 10.625 1.1025 10.625 -0.9375 10.625 C-1.164375 11.305625 -1.39125 11.98625 -1.625 12.6875 C-3.96460111 17.92375011 -5.8877076 21.80508304 -11.375 24 C-15.35764204 23.58077452 -15.83675117 23.16802993 -18.375 20.3125 C-20.9375 17.01403394 -20.9375 17.01403394 -20.9375 14.625 C-22.2575 13.965 -23.5775 13.305 -24.9375 12.625 C-24.9375 11.965 -24.9375 11.305 -24.9375 10.625 C-28.07491075 10.56995771 -30.03413312 10.58263536 -32.9375 11.625 C-35.71865213 14.32812382 -37.77990256 17.41598453 -39.9375 20.625 C-40.72125 21.57375 -41.505 22.5225 -42.3125 23.5 C-44.11666328 25.62069023 -44.11666328 25.62069023 -44.9375 28.625 C-46.27083333 29.29166667 -47.60416667 29.95833333 -48.9375 30.625 C-49.411875 31.264375 -49.88625 31.90375 -50.375 32.5625 C-52.2631218 35.05482077 -54.22490631 36.1033011 -56.9375 37.625 C-57.576875 38.181875 -58.21625 38.73875 -58.875 39.3125 C-61.63864973 41.07118619 -63.72918439 40.84374879 -66.9375 40.625 C-67.2675 38.645 -67.5975 36.665 -67.9375 34.625 C-63.1875 31.625 -63.1875 31.625 -60.9375 31.625 C-60.9375 30.965 -60.9375 30.305 -60.9375 29.625 C-58.03201118 27.58330515 -56.53607954 26.625 -52.9375 26.625 C-52.89625 26.068125 -52.855 25.51125 -52.8125 24.9375 C-51.70561876 22.01217101 -49.85851445 20.80069773 -47.4296875 18.9296875 C-45.38683256 17.14352637 -44.27301435 14.96215011 -42.9375 12.625 C-42.2775 12.625 -41.6175 12.625 -40.9375 12.625 C-40.875625 12.08875 -40.81375 11.5525 -40.75 11 C-39.5568416 7.5123062 -37.43062007 5.29620008 -34.9375 2.625 C-30.46495503 1.13415168 -26.41004497 1.13415168 -21.9375 2.625 C-21.25 4.6875 -21.25 4.6875 -20.9375 6.625 C-20.2775 6.625 -19.6175 6.625 -18.9375 6.625 C-18.26630451 8.0812545 -17.60068193 9.54007867 -16.9375 11 C-16.56625 11.81210937 -16.195 12.62421875 -15.8125 13.4609375 C-14.9375 15.625 -14.9375 15.625 -14.9375 17.625 C-13.2875 17.295 -11.6375 16.965 -9.9375 16.625 C-9.76734375 15.97273438 -9.5971875 15.32046875 -9.421875 14.6484375 C-5.69612069 1.21194057 -5.69612069 1.21194057 0 0 Z " fill="#D1FA7A" transform="translate(68.9375,45.375)"/>
<path d="M0 0 C-0.33 1.32 -0.66 2.64 -1 4 C-1.66 4 -2.32 4 -3 4 C-3 4.66 -3 5.32 -3 6 C-4.29035156 6.25394531 -5.58070313 6.50789063 -6.91015625 6.76953125 C-8.62768437 7.11679103 -10.34512788 7.46446954 -12.0625 7.8125 C-13.33383789 8.0609668 -13.33383789 8.0609668 -14.63085938 8.31445312 C-19.76351855 9.36476562 -24.26252948 10.75661165 -29 13 C-29 14.65 -29 16.3 -29 18 C-24.13681546 18.19452738 -20.5497359 17.68142414 -16 16 C-14.33911955 15.63893903 -12.67381019 15.29537827 -11 15 C-11 14.34 -11 13.68 -11 13 C-10.443125 12.773125 -9.88625 12.54625 -9.3125 12.3125 C-6.81800224 11.04508953 -6.81800224 11.04508953 -4.6875 8.5625 C-0.74378729 4.80221578 3.57833104 2.95514578 8.9375 2.125 C12.0551519 2.24069411 12.95106697 2.9533607 15.25 5.14453125 C19.83137795 10.99396917 22.12020396 15.54735468 22 23 C21 24 21 24 18.4375 24.0625 C17.633125 24.041875 16.82875 24.02125 16 24 C15.34 22.02 14.68 20.04 14 18 C13.34 18 12.68 18 12 18 C10.74335022 15.09399739 10 13.20395416 10 10 C3.57037444 10.14288057 -0.33076775 12.88322846 -5.546875 16.50390625 C-8 18 -8 18 -11 18 C-11 18.66 -11 19.32 -11 20 C-17.61853056 24.07294188 -23.26002429 24.9509113 -31 24 C-32.32 23.34 -33.64 22.68 -35 22 C-35 18.7 -35 15.4 -35 12 C-34.34 12 -33.68 12 -33 12 C-32.7525 11.401875 -32.505 10.80375 -32.25 10.1875 C-29.43855768 5.26747594 -24.60228657 3.91618079 -19.4375 2.3125 C-18.37982422 1.98052612 -18.37982422 1.98052612 -17.30078125 1.6418457 C-11.47653663 -0.07696831 -6.0692255 -0.57863379 0 0 Z " fill="#D0FA76" transform="translate(203,62)"/>
<path d="M0 0 C-1.25169275 3.75507824 -3.17641277 5.24058521 -6 8 C-6.7425 8.94875 -7.485 9.8975 -8.25 10.875 C-11.97002893 15.33903472 -16.49612451 20.29576143 -22.37109375 21.4765625 C-25.69443638 21.51018823 -28.73740346 21.04923685 -32 20.4375 C-36.10848073 19.83834656 -39.91251403 20.40958536 -44 21 C-42 18 -42 18 -39.25 16.8125 C-35.86763029 14.92617843 -35.4577914 14.27621877 -33.625 11.125 C-29.24788799 4.79215709 -21.07656714 3.74132774 -14 2 C-13.28489258 1.81163574 -12.56978516 1.62327148 -11.83300781 1.42919922 C-7.76545646 0.36691878 -4.2111969 -0.21055984 0 0 Z " fill="#69EF08" transform="translate(294,27)"/>
<path d="M0 0 C1.32 0 2.64 0 4 0 C4.21914062 0.63808594 4.43828125 1.27617188 4.6640625 1.93359375 C5.6271277 4.44304412 6.57803731 6.71624175 8 9 C11.116025 10.21790719 11.116025 10.21790719 14 10 C14 9.34 14 8.68 14 8 C15.9375 6.625 15.9375 6.625 19 5 C19.65484375 4.64292969 20.3096875 4.28585938 20.984375 3.91796875 C26.77942537 1.01016865 31.57018611 0.5167572 38 1 C38 1.66 38 2.32 38 3 C38.57363281 3.26683594 39.14726562 3.53367187 39.73828125 3.80859375 C43.73789415 5.91547101 47.12968475 8.49256672 50 12 C50.91232178 15.04107259 51.11476713 17.83673109 51 21 C48 20 48 20 46.7890625 18.07421875 C46.01709963 16.49143582 45.2462539 14.90810752 44.4765625 13.32421875 C42.61677819 10.39678049 40.96051793 8.82599777 38 7 C34.42054167 6.5185278 34.42054167 6.5185278 30.6875 6.75 C29.43324219 6.78609375 28.17898437 6.8221875 26.88671875 6.859375 C25.93410156 6.90578125 24.98148438 6.9521875 24 7 C24 7.66 24 8.32 24 9 C18.52380952 14 18.52380952 14 16 14 C15.8453125 15.175625 15.8453125 15.175625 15.6875 16.375 C15 19 15 19 12 21 C8.81256151 21.3390892 6.69173819 21.30743919 3.75 20 C-0.96734503 14.60874854 -0.24846024 6.73603328 0 0 Z " fill="#D1FA7A" transform="translate(114,66)"/>
<path d="M0 0 C1.65 0 3.3 0 5 0 C5.495 2.475 5.495 2.475 6 5 C5.38125 5.268125 4.7625 5.53625 4.125 5.8125 C1.7004767 6.95556848 1.7004767 6.95556848 0 10 C0.56203125 9.67257813 1.1240625 9.34515625 1.703125 9.0078125 C4.26859964 7.88214506 5.96842277 7.7931889 8.75 7.875 C9.54921875 7.89304687 10.3484375 7.91109375 11.171875 7.9296875 C11.77515625 7.95289063 12.3784375 7.97609375 13 8 C9.99559979 10.00293347 8.29006055 10.49271626 4.8125 11.125 C3.91144531 11.29257812 3.01039063 11.46015625 2.08203125 11.6328125 C1.39496094 11.75398438 0.70789063 11.87515625 0 12 C-0.33 12.99 -0.66 13.98 -1 15 C-2.98611503 16.02730088 -4.98863861 17.02305304 -7 18 C-8.87206346 19.45137504 -10.70586364 20.95333073 -12.5 22.5 C-16.15304723 25.64917864 -19.53919151 28.11368016 -24 30 C-26.875 29.6875 -26.875 29.6875 -29 29 C-29 28.67 -29 28.34 -29 28 C-27.02 28 -25.04 28 -23 28 C-22.938125 27.21625 -22.87625 26.4325 -22.8125 25.625 C-21.86760534 21.40931611 -20.16491666 18.07081612 -18.15625 14.26953125 C-16.89499162 11.93311799 -16.89499162 11.93311799 -16 9 C-14.2578125 7.9375 -14.2578125 7.9375 -12.125 7 C-9.80570454 5.9730057 -8.19908791 5.20202286 -6.41015625 3.38671875 C-5 2 -5 2 -2.3125 1.8125 C-1.549375 1.874375 -0.78625 1.93625 0 2 C0 1.34 0 0.68 0 0 Z " fill="#E5FDCC" transform="translate(264,22)"/>
<path d="M0 0 C0.3690205 16.8929385 0.3690205 16.8929385 -2 24 C-2.66 24 -3.32 24 -4 24 C-4.33 24.66 -4.66 25.32 -5 26 C-5.66 25.01 -6.32 24.02 -7 23 C-8.65 23.33 -10.3 23.66 -12 24 C-12.12375 25.134375 -12.2475 26.26875 -12.375 27.4375 C-12.58125 28.613125 -12.7875 29.78875 -13 31 C-13.66 31.33 -14.32 31.66 -15 32 C-15 30.68 -15 29.36 -15 28 C-15.66 28 -16.32 28 -17 28 C-17.26554688 27.30132812 -17.53109375 26.60265625 -17.8046875 25.8828125 C-18.15789062 24.97273438 -18.51109375 24.06265625 -18.875 23.125 C-19.22304687 22.22007813 -19.57109375 21.31515625 -19.9296875 20.3828125 C-20.88530895 17.87782993 -20.88530895 17.87782993 -23 16 C-22.625 13.875 -22.625 13.875 -22 12 C-19.21355437 15.90102388 -17.31860889 19.38486888 -16 24 C-15.84144531 23.2265625 -15.68289062 22.453125 -15.51953125 21.65625 C-13.67115951 13.40495515 -10.21496402 0 0 0 Z " fill="#6CEE0B" transform="translate(239,8)"/>
<path d="M0 0 C4 1 4 1 5.23339844 2.79638672 C6.03281212 5.09431918 6.25802993 6.83227185 6.265625 9.2578125 C6.26949219 10.44310547 6.26949219 10.44310547 6.2734375 11.65234375 C6.26570313 12.46832031 6.25796875 13.28429687 6.25 14.125 C6.25773437 14.94871094 6.26546875 15.77242187 6.2734375 16.62109375 C6.27085938 17.40871094 6.26828125 18.19632813 6.265625 19.0078125 C6.26336914 19.72598145 6.26111328 20.44415039 6.25878906 21.18408203 C6 23 6 23 4 25 C0.5463794 25.79648717 -2.54040444 25.74309947 -6 25 C-10.53497124 22.05192669 -14.00852718 18.48720923 -17 14 C-17 13.01 -17 12.02 -17 11 C-17.66 11 -18.32 11 -19 11 C-19.66 8.03 -20.32 5.06 -21 2 C-19.68 2.33 -18.36 2.66 -17 3 C-15.75 6.0625 -15.75 6.0625 -15 9 C-14.34 9 -13.68 9 -13 9 C-12.38125 9.94875 -11.7625 10.8975 -11.125 11.875 C-9.0551943 14.91883191 -8.37769313 15.90721693 -5 17 C-3.02 17.33 -1.04 17.66 1 18 C0.67 12.06 0.34 6.12 0 0 Z " fill="#D6FB88" transform="translate(103,63)"/>
<path d="M0 0 C1.93742341 -0.02703381 3.87495479 -0.04641125 5.8125 -0.0625 C6.89144531 -0.07410156 7.97039062 -0.08570313 9.08203125 -0.09765625 C12 0 12 0 15 1 C15 1.66 15 2.32 15 3 C17.31 3 19.62 3 22 3 C22 3.33 22 3.66 22 4 C21.43152344 4.09796875 20.86304688 4.1959375 20.27734375 4.296875 C12.62371309 5.77904722 7.48987306 8.30679831 2 14 C1.34 14 0.68 14 0 14 C0 14.66 0 15.32 0 16 C-6.23710152 19.33612407 -10.92470629 20.27212668 -18 20 C-19 19 -19 19 -19.0625 16.4375 C-19.041875 15.633125 -19.02125 14.82875 -19 14 C-10.9025964 9.2076591 -1.40385668 7 8 7 C8 6.34 8 5.68 8 5 C8.66 4.67 9.32 4.34 10 4 C10.33 3.01 10.66 2.02 11 1 C7.37 1 3.74 1 0 1 C0 0.67 0 0.34 0 0 Z " fill="#FBFEF2" transform="translate(192,61)"/>
<path d="M0 0 C4.8990005 0.40897518 6.6995983 2.39206367 9.8125 6.0625 C10.99779297 7.44115234 10.99779297 7.44115234 12.20703125 8.84765625 C12.79871094 9.55792969 13.39039063 10.26820312 14 11 C13.01 11.66 12.02 12.32 11 13 C10.01 14.485 10.01 14.485 9 16 C7.68 15.34 6.36 14.68 5 14 C5.66 17.63 6.32 21.26 7 25 C7.99 25.33 8.98 25.66 10 26 C10.33 26.99 10.66 27.98 11 29 C13.00016466 30.20882096 13.00016466 30.20882096 15 31 C15 32.65 15 34.3 15 36 C13.87411986 35.04270084 12.7493285 34.08412105 11.625 33.125 C10.99851563 32.59132812 10.37203125 32.05765625 9.7265625 31.5078125 C8.44163349 30.38567993 7.20628025 29.20628025 6 28 C6 26.68 6 25.36 6 24 C5.34 24 4.68 24 4 24 C1.09169144 16.06159801 0.35161161 8.41442956 0 0 Z " fill="#72F503" transform="translate(197,2)"/>
<path d="M0 0 C-0.80824219 0.73605469 -1.61648438 1.47210937 -2.44921875 2.23046875 C-3.52870221 3.21608409 -4.60812612 4.20176465 -5.6875 5.1875 C-6.48317383 5.91163086 -6.48317383 5.91163086 -7.29492188 6.65039062 C-9.80140095 8.94158928 -12.25405989 11.25405989 -14.65625 13.65625 C-16.6457452 15.6457452 -18.66326456 17.50039953 -20.8125 19.3125 C-21.41707031 19.82425781 -22.02164063 20.33601563 -22.64453125 20.86328125 C-23.09183594 21.23839844 -23.53914062 21.61351563 -24 22 C-23.34254907 10.52861487 -23.34254907 10.52861487 -20 6 C-17.4768687 4.2605236 -14.84809401 3.11169127 -12 2 C-11.20207031 1.68804688 -10.40414063 1.37609375 -9.58203125 1.0546875 C-3.47307467 -1.15769156 -3.47307467 -1.15769156 0 0 Z " fill="#76F112" transform="translate(268,25)"/>
<path d="M0 0 C0.66 0 1.32 0 2 0 C2.66 2.64 3.32 5.28 4 8 C4.66 8 5.32 8 6 8 C6.33 8.99 6.66 9.98 7 11 C7.33 8.69 7.66 6.38 8 4 C9.98 3.34 11.96 2.68 14 2 C14.66 2.66 15.32 3.32 16 4 C15.625 7.125 15.625 7.125 15 10 C14.34 10 13.68 10 13 10 C13 10.66 13 11.32 13 12 C12.34 12 11.68 12 11 12 C11 12.66 11 13.32 11 14 C8 16 8 16 4.625 15.875 C0.71106091 14.93025608 -1.21178559 13.87270576 -4 11 C-4 8 -4 8 -2 6 C-1.28591666 4.01643517 -0.61382258 2.01684563 0 0 Z " fill="#5AEA09" transform="translate(218,28)"/>
<path d="M0 0 C0.66 0.33 1.32 0.66 2 1 C-1.40710934 5.50940942 -3.87560528 7.49231748 -9 10 C-11.73199119 12.6170482 -11.73199119 12.6170482 -13 16 C-19.51397536 17.21241504 -24.5194141 17.96219215 -30.25 14.1875 C-32.453125 12.54296875 -32.453125 12.54296875 -34 11 C-34 10.34 -34 9.68 -34 9 C-34.78375 8.87625 -35.5675 8.7525 -36.375 8.625 C-39 8 -39 8 -41 6 C-39.906875 6.020625 -38.81375 6.04125 -37.6875 6.0625 C-34.05615809 6.18544452 -34.05615809 6.18544452 -31 5 C-31 4.34 -31 3.68 -31 3 C-30.34 3 -29.68 3 -29 3 C-28.67 2.34 -28.34 1.68 -28 1 C-28.06960937 1.90492187 -28.06960937 1.90492187 -28.140625 2.828125 C-28.39980577 7.98651966 -28.39980577 7.98651966 -26.375 12.625 C-24.06051116 14.21930849 -24.06051116 14.21930849 -21.25 14.0625 C-13.03163787 11.37572776 -6.57489535 5.42967793 0 0 Z " fill="#74E42A" transform="translate(260,37)"/>
<path d="M0 0 C-4.0004134 2.66694227 -8.16266653 3.54335015 -12.7734375 4.8046875 C-16.76037866 6.28168992 -20.05092761 8.10185523 -22 12 C-22.66 12 -23.32 12 -24 12 C-24 15.3 -24 18.6 -24 22 C-20.46105516 22.88473621 -17.67585863 23.19532118 -14.0625 23.25 C-13.04285156 23.27578125 -12.02320313 23.3015625 -10.97265625 23.328125 C-7.60184284 22.95605098 -5.84826343 21.75426039 -3 20 C-2.01 20.33 -1.02 20.66 0 21 C-0.66 21 -1.32 21 -2 21 C-2 21.66 -2 22.32 -2 23 C-8.39690558 25.84722083 -13.54509028 26.38462317 -20.5 26.1875 C-21.4178125 26.17396484 -22.335625 26.16042969 -23.28125 26.14648438 C-25.52146803 26.11148097 -27.76040594 26.06238869 -30 26 C-29.67 25.34 -29.34 24.68 -29 24 C-28.34 24.33 -27.68 24.66 -27 25 C-27.14308594 24.07767578 -27.14308594 24.07767578 -27.2890625 23.13671875 C-27.39992187 22.32847656 -27.51078125 21.52023438 -27.625 20.6875 C-27.74101562 19.88699219 -27.85703125 19.08648437 -27.9765625 18.26171875 C-28 16 -28 16 -26 13 C-25.67 12.34 -25.34 11.68 -25 11 C-24.34 11 -23.68 11 -23 11 C-23 10.01 -23 9.02 -23 8 C-21.6875 6.3125 -21.6875 6.3125 -20 5 C-19.01 5 -18.02 5 -17 5 C-17 4.34 -17 3.68 -17 3 C-5.47835991 -0.44419134 -5.47835991 -0.44419134 0 0 Z " fill="#EEFECB" transform="translate(192,62)"/>
<path d="M0 0 C0.66 0 1.32 0 2 0 C3.32 2.64 4.64 5.28 6 8 C6.66 8 7.32 8 8 8 C8 9.65 8 11.3 8 13 C8.66 13 9.32 13 10 13 C10 13.66 10 14.32 10 15 C10.66 15 11.32 15 12 15 C12.12375 15.928125 12.12375 15.928125 12.25 16.875 C12.81258459 19.18437567 12.81258459 19.18437567 15.0625 20.25 C15.701875 20.4975 16.34125 20.745 17 21 C17 21.66 17 22.32 17 23 C18.65 23 20.3 23 22 23 C21.835 21.700625 21.67 20.40125 21.5 19.0625 C20.9684362 14.34580713 20.92470459 9.74361065 21 5 C23.375 4.875 23.375 4.875 26 5 C26.66 5.66 27.32 6.32 28 7 C27.625 9.125 27.625 9.125 27 11 C26.67 10.01 26.34 9.02 26 8 C25.01 7.67 24.02 7.34 23 7 C23.2475 8.11375 23.2475 8.11375 23.5 9.25 C24.20054587 14.50409401 24.07707499 19.70751749 24 25 C16.24103236 24.96619186 16.24103236 24.96619186 13.2890625 22.66796875 C10 18.76101879 10 18.76101879 10 16 C9.34 16 8.68 16 8 16 C7.7525 15.030625 7.505 14.06125 7.25 13.0625 C6.8375 12.051875 6.425 11.04125 6 10 C4.68 9.67 3.36 9.34 2 9 C1.34 6.03 0.68 3.06 0 0 Z M-2 7 C-0.0625 7.6875 -0.0625 7.6875 2 9 C2.75 11.625 2.75 11.625 3 14 C2.34 14 1.68 14 1 14 C-2 9.61538462 -2 9.61538462 -2 7 Z " fill="#E2FBAD" transform="translate(80,56)"/>
<path d="M0 0 C-1.25169275 3.75507824 -3.17641277 5.24058521 -6 8 C-6.7425 8.94875 -7.485 9.8975 -8.25 10.875 C-11.53837051 14.90929482 -15.67734151 18.12955095 -20 21 C-20.66 21 -21.32 21 -22 21 C-21.67 19.35 -21.34 17.7 -21 16 C-20.01 16 -19.02 16 -18 16 C-14.85092515 12.10996636 -13.473492 8.97166604 -13 4 C-15.31 4.33 -17.62 4.66 -20 5 C-14.28447359 1.18964906 -6.8536779 -0.55570361 0 0 Z " fill="#74F110" transform="translate(294,27)"/>
<path d="M0 0 C0.721875 0.45375 1.44375 0.9075 2.1875 1.375 C6.93407426 4.11746513 10.83004929 5.26351973 16.3125 5.625 C17.91544922 5.73714844 17.91544922 5.73714844 19.55078125 5.8515625 C20.35902344 5.90054688 21.16726563 5.94953125 22 6 C22 6.66 22 7.32 22 8 C17.40294148 10.64647176 13.18540361 10.52011647 8 10 C5.97986905 9.42618848 4.13392047 8.69135161 2.20703125 7.859375 C-1.4768796 6.42493184 -5.32310834 5.63802074 -9.16796875 4.74609375 C-11.8951156 4.02763162 -14.40805603 3.10406388 -17 2 C-13.68811918 0.87859566 -11.92110803 1.12291021 -8.6875 2.375 C-4.74854692 3.80319656 -1.15954023 4.55749572 3 5 C3 4.34 3 3.68 3 3 C2.01 2.67 1.02 2.34 0 2 C0 1.34 0 0.68 0 0 Z " fill="#85E641" transform="translate(278,55)"/>
<path d="M0 0 C0.02684312 2.81256281 0.04676188 5.62487241 0.0625 8.4375 C0.07087891 9.23994141 0.07925781 10.04238281 0.08789062 10.86914062 C0.0965143 12.91295221 0.0522815 14.95683902 0 17 C-0.33 17.33 -0.66 17.66 -1 18 C-1.29678881 19.72490129 -1.56235954 21.4552189 -1.8125 23.1875 C-2.63713048 28.05974423 -4.1644411 30.93569891 -7 35 C-7.33594133 38.25177852 -7.33594133 38.25177852 -7 41 C-7.99 40.67 -8.98 40.34 -10 40 C-9.63495936 34.33557626 -8.9445679 29.99296295 -6 25 C-5.34 25 -4.68 25 -4 25 C-3.34 17.08 -2.68 9.16 -2 1 C-6.81427402 2.78993748 -6.81427402 2.78993748 -9.8125 6.125 C-10.534375 7.07375 -11.25625 8.0225 -12 9 C-12.33 7.68 -12.66 6.36 -13 5 C-12.01 4.67 -11.02 4.34 -10 4 C-9.67 3.34 -9.34 2.68 -9 2 C-6.98558063 -2.02883874 -3.72407517 -0.90585612 0 0 Z " fill="#E3FDCA" transform="translate(241,7)"/>
<path d="M0 0 C0.99 0 1.98 0 3 0 C5.327772 7.27428751 5.44364779 14.39608317 5 22 C4 23 4 23 1.93359375 23.09765625 C1.10988281 23.08605469 0.28617187 23.07445313 -0.5625 23.0625 C-1.38878906 23.05347656 -2.21507813 23.04445313 -3.06640625 23.03515625 C-4.02353516 23.01775391 -4.02353516 23.01775391 -5 23 C-5.66 21.68 -6.32 20.36 -7 19 C-3.535 18.505 -3.535 18.505 0 18 C0 12.06 0 6.12 0 0 Z " fill="#CCFC6A" transform="translate(103,63)"/>
<path d="M0 0 C3.2844392 0.30552923 4.51451953 0.7550965 6.6875 3.25 C7.20988806 9.20522388 7.20988806 9.20522388 5.6875 12.25 C3.0475 12.25 0.4075 12.25 -2.3125 12.25 C-3.5023306 9.8703388 -3.44599966 8.33514265 -3.4375 5.6875 C-3.44136719 4.47900391 -3.44136719 4.47900391 -3.4453125 3.24609375 C-3.25254025 0.34884022 -2.89032037 0.31246707 0 0 Z " fill="#E8FCBC" transform="translate(100.3125,41.75)"/>
<path d="M0 0 C0.66 0.33 1.32 0.66 2 1 C1.04578192 2.14926266 0.08647955 3.29430541 -0.875 4.4375 C-1.40867187 5.07558594 -1.94234375 5.71367188 -2.4921875 6.37109375 C-4 8 -4 8 -6 9 C-6.33 9.99 -6.66 10.98 -7 12 C-12.22222222 15 -12.22222222 15 -15 15 C-15 15.66 -15 16.32 -15 17 C-17.5614657 19.29648649 -18.47967572 20 -22 20 C-21.67 21.98 -21.34 23.96 -21 26 C-14.10740765 24.65226477 -14.10740765 24.65226477 -9 20 C-8.34 20.33 -7.68 20.66 -7 21 C-9.21928194 23.90802461 -10.92969143 25.95312762 -14 28 C-17.02329256 28.2610788 -19.95876242 28.08815181 -23 28 C-23 25.03 -23 22.06 -23 19 C-21.68 18.34 -20.36 17.68 -19 17 C-18.566875 16.54625 -18.13375 16.0925 -17.6875 15.625 C-15.9917923 13.99209629 -14.5073352 13.15301235 -12.4375 12.0625 C-9.40788139 10.40825218 -8.38486911 9.1958518 -7 6 C-5.67479497 5.31731862 -4.34187818 4.6492959 -3 4 C-2.67 3.01 -2.34 2.02 -2 1 C-1.34 0.67 -0.68 0.34 0 0 Z " fill="#EBFDC1" transform="translate(23,60)"/>
<path d="M0 0 C0.3690205 16.8929385 0.3690205 16.8929385 -2 24 C-3.14077657 20.57767028 -3.09815117 17.91326783 -3.0625 14.3125 C-3.05347656 13.13300781 -3.04445312 11.95351563 -3.03515625 10.73828125 C-3.02355469 9.83464844 -3.01195312 8.93101563 -3 8 C-3.99 7.67 -4.98 7.34 -6 7 C-6.33 7.66 -6.66 8.32 -7 9 C-7.99 9 -8.98 9 -10 9 C-10 9.99 -10 10.98 -10 12 C-10.66 12 -11.32 12 -12 12 C-10.42173348 5.37128061 -7.14017328 0 0 0 Z " fill="#88ED33" transform="translate(239,8)"/>
<path d="M0 0 C1 3 1 3 0.0625 5.1875 C-0.288125 5.785625 -0.63875 6.38375 -1 7 C-0.01 7.33 0.98 7.66 2 8 C1.51789062 8.67546875 1.03578125 9.3509375 0.5390625 10.046875 C-0.09257812 10.93890625 -0.72421875 11.8309375 -1.375 12.75 C-2.00148438 13.63171875 -2.62796875 14.5134375 -3.2734375 15.421875 C-5.00652969 17.88488632 -5.00652969 17.88488632 -6.109375 20.265625 C-7.30167274 22.58746797 -8.66939555 22.90324497 -11 24 C-12.37086915 25.29470975 -13.71340837 26.62150897 -15 28 C-13.66221158 23.95847079 -12.00272465 21.73367306 -8.875 18.875 C-6.70241659 16.95331507 -6.70241659 16.95331507 -5 15 C-5 14.01 -5 13.02 -5 12 C-5.99 11.67 -6.98 11.34 -8 11 C-6.625 8.5 -6.625 8.5 -5 6 C-4.34 6 -3.68 6 -3 6 C-2.87625 5.38125 -2.7525 4.7625 -2.625 4.125 C-2 2 -2 2 0 0 Z " fill="#D1F975" transform="translate(31,52)"/>
<path d="M0 0 C2.375 0.1875 2.375 0.1875 5 1 C6.1875 3.5 6.1875 3.5 7 6 C7.66 6.33 8.32 6.66 9 7 C11.69645899 11.54140461 11.01872381 16.01957248 10 21 C9 22 9 22 5.4375 22.0625 C4.303125 22.041875 3.16875 22.02125 2 22 C0.57055055 19.64561267 -0.08661261 18.51967567 0.375 15.75 C0.58125 15.1725 0.7875 14.595 1 14 C1.66 15.98 2.32 17.96 3 20 C4.65 19.67 6.3 19.34 8 19 C7.88465568 11.7333077 6.2351886 8.24239162 1.49609375 2.75 C0 1 0 1 0 0 Z " fill="#F4FED7" transform="translate(216,66)"/>
<path d="M0 0 C2.64 0 5.28 0 8 0 C8.67305018 1.60149886 9.33822227 3.20631029 10 4.8125 C10.37125 5.70582031 10.7425 6.59914063 11.125 7.51953125 C12 10 12 10 12 13 C11.34 13 10.68 13 10 13 C9.67 11.35 9.34 9.7 9 8 C8.071875 7.87625 7.14375 7.7525 6.1875 7.625 C3 7 3 7 0 5 C-0.1875 2.375 -0.1875 2.375 0 0 Z " fill="#CBFC68" transform="translate(39,48)"/>
<path d="M0 0 C2.97 0.495 2.97 0.495 6 1 C6.33 2.65 6.66 4.3 7 6 C8.32 6.33 9.64 6.66 11 7 C11.12375 7.969375 11.2475 8.93875 11.375 9.9375 C11.58125 10.948125 11.7875 11.95875 12 13 C12.66 13.33 13.32 13.66 14 14 C13.67 10.7 13.34 7.4 13 4 C16 6 16 6 16.546875 8.12890625 C16.64742187 9.33353516 16.64742187 9.33353516 16.75 10.5625 C16.82734375 11.36816406 16.9046875 12.17382812 16.984375 13.00390625 C16.98953125 13.66261719 16.9946875 14.32132813 17 15 C16 16 16 16 13.4375 16.0625 C12.633125 16.041875 11.82875 16.02125 11 16 C10.34 14.02 9.68 12.04 9 10 C8.34 10 7.68 10 7 10 C5.74335022 7.09399739 5 5.20395416 5 2 C3.35 2 1.7 2 0 2 C0 1.34 0 0.68 0 0 Z " fill="#D9F990" transform="translate(208,70)"/>
<path d="M0 0 C0.66 0.33 1.32 0.66 2 1 C1.67 1.99 1.34 2.98 1 4 C4.465 3.505 4.465 3.505 8 3 C5 5 5 5 1.375 6.3125 C-2.21716478 7.61835055 -2.21716478 7.61835055 -2.9375 10.6875 C-2.958125 11.450625 -2.97875 12.21375 -3 13 C-3.66 11.68 -4.32 10.36 -5 9 C-5.66 9 -6.32 9 -7 9 C-6.65772428 11.97065509 -6.65772428 11.97065509 -6 15 C-5.34 15.33 -4.68 15.66 -4 16 C-4 16.66 -4 17.32 -4 18 C-5.32 17.67 -6.64 17.34 -8 17 C-8 13.7 -8 10.4 -8 7 C-7.34 7 -6.68 7 -6 7 C-5.7525 6.401875 -5.505 5.80375 -5.25 5.1875 C-3.83629988 2.71352479 -2.34944617 1.56629745 0 0 Z " fill="#D2F983" transform="translate(176,67)"/>
<path d="M0 0 C2.96052484 3.36423277 3.92289822 6.69159287 5 11 C6.65 11.33 8.3 11.66 10 12 C10 12.99 10 13.98 10 15 C2.5263755 14.50992626 2.5263755 14.50992626 0 12.0625 C-1 10 -1 10 -1 8 C-2.32 7.34 -3.64 6.68 -5 6 C-5 5.34 -5 4.68 -5 4 C-3.68 4 -2.36 4 -1 4 C-0.67 5.65 -0.34 7.3 0 9 C0.66 9 1.32 9 2 9 C1.67 8.2575 1.34 7.515 1 6.75 C0 4 0 4 0 0 Z " fill="#D4FA86" transform="translate(49,52)"/>
<path d="M0 0 C1.93742341 -0.02703381 3.87495479 -0.04641125 5.8125 -0.0625 C6.89144531 -0.07410156 7.97039062 -0.08570313 9.08203125 -0.09765625 C12 0 12 0 15 1 C15 1.66 15 2.32 15 3 C17.31 3 19.62 3 22 3 C22 3.33 22 3.66 22 4 C21.43152344 4.09796875 20.86304688 4.1959375 20.27734375 4.296875 C12.79292436 5.74627842 7.20355012 8.17202387 2 14 C1.34 13.67 0.68 13.34 0 13 C1.32 11.68 2.64 10.36 4 9 C2.68 8.67 1.36 8.34 0 8 C2.64 7.67 5.28 7.34 8 7 C8 6.34 8 5.68 8 5 C8.66 4.67 9.32 4.34 10 4 C10.33 3.01 10.66 2.02 11 1 C7.37 1 3.74 1 0 1 C0 0.67 0 0.34 0 0 Z " fill="#E9FDBE" transform="translate(192,61)"/>
<path d="M0 0 C2.375 -0.125 2.375 -0.125 5 0 C5.66 0.66 6.32 1.32 7 2 C6.625 4.125 6.625 4.125 6 6 C5.67 5.01 5.34 4.02 5 3 C4.01 2.67 3.02 2.34 2 2 C2.165 2.7425 2.33 3.485 2.5 4.25 C3.20054587 9.50409401 3.07707499 14.70751749 3 20 C-2.703125 20.25 -2.703125 20.25 -5.375 18 C-5.91125 17.34 -6.4475 16.68 -7 16 C-6.01 16 -5.02 16 -4 16 C-4 16.66 -4 17.32 -4 18 C-2.35 18 -0.7 18 1 18 C0.835 16.700625 0.67 15.40125 0.5 14.0625 C-0.0315638 9.34580713 -0.07529541 4.74361065 0 0 Z " fill="#F0FED2" transform="translate(101,61)"/>
<path d="M0 0 C5.55528097 1.11105619 6.3063537 1.9283872 9.8125 6.0625 C10.99779297 7.44115234 10.99779297 7.44115234 12.20703125 8.84765625 C12.79871094 9.55792969 13.39039063 10.26820312 14 11 C13.01 11.66 12.02 12.32 11 13 C10.01 14.485 10.01 14.485 9 16 C9 14.68 9 13.36 9 12 C7.93708343 10.10448849 7.93708343 10.10448849 6.5 8.375 C4 5.19444444 4 5.19444444 4 3 C3.34 3 2.68 3 2 3 C2 6.63 2 10.26 2 14 C1.67 14 1.34 14 1 14 C0.67 9.38 0.34 4.76 0 0 Z " fill="#80EE25" transform="translate(197,2)"/>
<path d="M0 0 C0.66 0.33 1.32 0.66 2 1 C1.67 1.66 1.34 2.32 1 3 C1.66 3.33 2.32 3.66 3 4 C-7.15801354 12.23927765 -7.15801354 12.23927765 -12 14 C-14.875 13.6875 -14.875 13.6875 -17 13 C-17 12.67 -17 12.34 -17 12 C-15.02 12 -13.04 12 -11 12 C-10.87625 11.05125 -10.7525 10.1025 -10.625 9.125 C-10 6 -10 6 -8 4 C-7.67 5.32 -7.34 6.64 -7 8 C-4.69 5.36 -2.38 2.72 0 0 Z " fill="#C7FBA5" transform="translate(252,38)"/>
<path d="M0 0 C1.32 0 2.64 0 4 0 C3.67 0.66 3.34 1.32 3 2 C2.34 1.67 1.68 1.34 1 1 C1 3.31 1 5.62 1 8 C1.66 8 2.32 8 3 8 C3.66 11.3 4.32 14.6 5 18 C7.31 18.33 9.62 18.66 12 19 C12 18.34 12 17.68 12 17 C12.66 17 13.32 17 14 17 C14.33 16.01 14.66 15.02 15 14 C15.33 14.99 15.66 15.98 16 17 C13.73025981 19.79352638 12.62512706 20.90883564 9 21.4375 C5.55621604 20.93528151 4.29224892 20.61971305 2 18 C-0.11846223 11.96238266 -0.23433429 6.35306301 0 0 Z " fill="#DAFA99" transform="translate(114,66)"/>
<path d="M0 0 C5.75 -0.125 5.75 -0.125 8 1 C8.33 1.99 8.66 2.98 9 4 C9.66 4.33 10.32 4.66 11 5 C11 5.66 11 6.32 11 7 C5.06997733 7.37851209 0.52760359 6.10575375 -5 4 C-4.0409375 3.8453125 -4.0409375 3.8453125 -3.0625 3.6875 C-2.381875 3.460625 -1.70125 3.23375 -1 3 C-0.67 2.01 -0.34 1.02 0 0 Z " fill="#72EF0B" transform="translate(270,53)"/>
<path d="M0 0 C0.33 0.66 0.66 1.32 1 2 C1.639375 2.12375 2.27875 2.2475 2.9375 2.375 C3.618125 2.58125 4.29875 2.7875 5 3 C5.66 4.32 6.32 5.64 7 7 C4.03 6.67 1.06 6.34 -2 6 C-2 6.99 -2 7.98 -2 9 C-3.32 8.67 -4.64 8.34 -6 8 C-5.8125 5.125 -5.8125 5.125 -5 2 C-2.4375 0.625 -2.4375 0.625 0 0 Z " fill="#CAFD65" transform="translate(69,48)"/>
<path d="M0 0 C0.99 0.33 1.98 0.66 3 1 C3.103125 2.11375 3.20625 3.2275 3.3125 4.375 C3.539375 5.57125 3.76625 6.7675 4 8 C4.99 8.66 5.98 9.32 7 10 C6.67 11.65 6.34 13.3 6 15 C7.32 15 8.64 15 10 15 C10 15.66 10 16.32 10 17 C7.69 17 5.38 17 3 17 C2.67 13.7 2.34 10.4 2 7 C1.34 7 0.68 7 0 7 C0 4.69 0 2.38 0 0 Z " fill="#CAFD63" transform="translate(115,67)"/>
<path d="M0 0 C0.99 0 1.98 0 3 0 C2.79503906 0.6290625 2.59007812 1.258125 2.37890625 1.90625 C0.68028765 7.30281819 -0.47838853 12.36659614 -1 18 C-4.42931954 14.2440786 -5.56429083 9.76533255 -7 5 C-6.01 5 -5.02 5 -4 5 C-4 5.99 -4 6.98 -4 8 C-3.34 8 -2.68 8 -2 8 C-1.7834375 6.576875 -1.7834375 6.576875 -1.5625 5.125 C-1 2 -1 2 0 0 Z " fill="#F5FEEE" transform="translate(225,16)"/>
<path d="M0 0 C-3.96 3.465 -3.96 3.465 -8 7 C-8.33 6.01 -8.66 5.02 -9 4 C-12.3 5.32 -15.6 6.64 -19 8 C-19.33 7.34 -19.66 6.68 -20 6 C-5.28169014 -1.76056338 -5.28169014 -1.76056338 0 0 Z " fill="#94EF48" transform="translate(268,25)"/>
<path d="M0 0 C0.77734375 1.703125 0.77734375 1.703125 1 4 C-0.87109375 6.359375 -0.87109375 6.359375 -3.4375 8.75 C-4.70400391 9.94882813 -4.70400391 9.94882813 -5.99609375 11.171875 C-6.65738281 11.77515625 -7.31867187 12.3784375 -8 13 C-8.99 12.67 -9.98 12.34 -11 12 C-9.73841989 10.18104721 -8.46542094 8.3700098 -7.1875 6.5625 C-6.47980469 5.55316406 -5.77210937 4.54382813 -5.04296875 3.50390625 C-3 1 -3 1 0 0 Z " fill="#CCFC64" transform="translate(26,63)"/>
<path d="M0 0 C2.97 0 5.94 0 9 0 C8.61124961 5.44250545 6.83447004 8.16552996 3 12 C0.1875 13.375 0.1875 13.375 -2 14 C0.18953373 8.82473846 4.07481433 4.92518567 8 1 C3.545 1.495 3.545 1.495 -1 2 C-0.67 1.34 -0.34 0.68 0 0 Z " fill="#DDFCC0" transform="translate(286,26)"/>
<path d="M0 0 C0.66 0.33 1.32 0.66 2 1 C0.5834979 4.4232134 -1.06827149 5.82484659 -4 8 C-4.33 8.99 -4.66 9.98 -5 11 C-3.68 11.33 -2.36 11.66 -1 12 C-1.33 12.99 -1.66 13.98 -2 15 C-3.17487036 14.24172908 -4.33972592 13.46792245 -5.5 12.6875 C-6.1496875 12.25824219 -6.799375 11.82898437 -7.46875 11.38671875 C-7.9740625 10.92910156 -8.479375 10.47148438 -9 10 C-9 9.01 -9 8.02 -9 7 C-7.03125 5.17578125 -7.03125 5.17578125 -4.5 3.3125 C-3.6646875 2.68988281 -2.829375 2.06726562 -1.96875 1.42578125 C-0.99421875 0.72001953 -0.99421875 0.72001953 0 0 Z " fill="#DBFDC0" transform="translate(281,41)"/>
<path d="M0 0 C1.98 0.495 1.98 0.495 4 1 C5.3271261 4.9813783 5.06915913 8.85045227 5 13 C4.01 12.67 3.02 12.34 2 12 C2 10.02 2 8.04 2 6 C1.01 5.67 0.02 5.34 -1 5 C-0.67 3.35 -0.34 1.7 0 0 Z " fill="#CDFC65" transform="translate(217,71)"/>
<path d="M0 0 C0.99 0 1.98 0 3 0 C5.3479743 7.33741969 5.19355213 14.34393782 5 22 C4.67 22 4.34 22 4 22 C3.67 17.71 3.34 13.42 3 9 C2.67 11.64 2.34 14.28 2 17 C1.67 17 1.34 17 1 17 C0.67 11.39 0.34 5.78 0 0 Z " fill="#D1F77B" transform="translate(103,63)"/>
<path d="M0 0 C3.71137193 -0.3452439 5.51625962 -0.31499373 8.6875 1.75 C10.72412934 3.7315853 12.4077365 5.65350642 14 8 C13.67 8.66 13.34 9.32 13 10 C12.0925 9.21625 11.185 8.4325 10.25 7.625 C6.91276702 4.8244369 6.91276702 4.8244369 3 3 C0.31006947 3.30378052 0.31006947 3.30378052 -2 4 C-1.34 2.68 -0.68 1.36 0 0 Z " fill="#D7FA8C" transform="translate(66,46)"/>
<path d="M0 0 C4.17950077 3.45889719 5.32762134 6.98286401 7 12 C7.33 10.02 7.66 8.04 8 6 C8.33 6 8.66 6 9 6 C9 10.62 9 15.24 9 20 C8.67 18.68 8.34 17.36 8 16 C7.34 16 6.68 16 6 16 C5.73445312 15.30132812 5.46890625 14.60265625 5.1953125 13.8828125 C4.84210938 12.97273438 4.48890625 12.06265625 4.125 11.125 C3.77695313 10.22007813 3.42890625 9.31515625 3.0703125 8.3828125 C2.11469105 5.87782993 2.11469105 5.87782993 0 4 C0 2.68 0 1.36 0 0 Z " fill="#95F158" transform="translate(216,20)"/>
<path d="M0 0 C1.37562854 1.28965176 2.70766393 2.62689293 4 4 C4 4.66 4 5.32 4 6 C4.99 6.33 5.98 6.66 7 7 C7.33 7.99 7.66 8.98 8 10 C10.00016466 11.20882096 10.00016466 11.20882096 12 12 C12 13.65 12 15.3 12 17 C10.87411986 16.04270084 9.7493285 15.08412105 8.625 14.125 C7.99851563 13.59132813 7.37203125 13.05765625 6.7265625 12.5078125 C5.44163349 11.38567993 4.20628025 10.20628025 3 9 C3 7.68 3 6.36 3 5 C2.34 5 1.68 5 1 5 C0.67 3.35 0.34 1.7 0 0 Z " fill="#82E83E" transform="translate(200,21)"/>
<path d="M0 0 C-1.24546405 3.73639216 -2.63404953 4.18756513 -6 6 C-6 5.34 -6 4.68 -6 4 C-10.78478822 3.90235126 -15.27685687 4.22887459 -20 5 C-14.28447359 1.18964906 -6.8536779 -0.55570361 0 0 Z " fill="#86ED2F" transform="translate(294,27)"/>
<path d="M0 0 C5.28 0 10.56 0 16 0 C16 0.66 16 1.32 16 2 C13.40483479 3.29758261 11.45816973 3.13269102 8.5625 3.125 C7.59441406 3.12757812 6.62632812 3.13015625 5.62890625 3.1328125 C3 3 3 3 0 2 C0 1.34 0 0.68 0 0 Z " fill="#73E136" transform="translate(284,61)"/>
<path d="M0 0 C1.31223496 3.93670488 0.24296256 6.12488144 -1 10 C-2.32 10 -3.64 10 -5 10 C-5 9.34 -5 8.68 -5 8 C-5.78375 7.87625 -6.5675 7.7525 -7.375 7.625 C-10 7 -10 7 -12 5 C-10.906875 5.020625 -9.81375 5.04125 -8.6875 5.0625 C-5.05615809 5.18544452 -5.05615809 5.18544452 -2 4 C-2 3.34 -2 2.68 -2 2 C-1.34 2 -0.68 2 0 2 C0 1.34 0 0.68 0 0 Z " fill="#66E326" transform="translate(231,38)"/>
<path d="M0 0 C0.66 0.33 1.32 0.66 2 1 C1.04578192 2.14926266 0.08647955 3.29430541 -0.875 4.4375 C-1.40867187 5.07558594 -1.94234375 5.71367188 -2.4921875 6.37109375 C-4 8 -4 8 -6 9 C-6.33 9.99 -6.66 10.98 -7 12 C-8.7421875 13.203125 -8.7421875 13.203125 -10.875 14.25 C-11.57367188 14.60578125 -12.27234375 14.9615625 -12.9921875 15.328125 C-15 16 -15 16 -18 15 C-17.37351562 14.68546875 -16.74703125 14.3709375 -16.1015625 14.046875 C-15.28429687 13.61890625 -14.46703125 13.1909375 -13.625 12.75 C-12.40683594 12.12351562 -12.40683594 12.12351562 -11.1640625 11.484375 C-8.76164684 9.83650866 -8.15738818 8.6108524 -7 6 C-5.67479497 5.31731862 -4.34187818 4.6492959 -3 4 C-2.67 3.01 -2.34 2.02 -2 1 C-1.34 0.67 -0.68 0.34 0 0 Z " fill="#F3FEDA" transform="translate(23,60)"/>
<path d="M0 0 C2.93485825 1.35820301 4.60246084 2.76973101 7 5 C6.67 5.99 6.34 6.98 6 8 C4.82780457 7.21654285 3.66236332 6.42297164 2.5 5.625 C1.52546875 4.96371094 1.52546875 4.96371094 0.53125 4.2890625 C0.0259375 3.86367187 -0.479375 3.43828125 -1 3 C-1 2.34 -1 1.68 -1 1 C-2.58367747 1.14204741 -4.16693318 1.28880153 -5.75 1.4375 C-6.63171875 1.51871094 -7.5134375 1.59992188 -8.421875 1.68359375 C-10.69350452 1.96238465 -12.79851823 2.38790577 -15 3 C-15 2.34 -15 1.68 -15 1 C-10.56424782 -1.21787609 -4.81269078 -0.53728377 0 0 Z " fill="#F2FFD3" transform="translate(153,66)"/>
<path d="M0 0 C2.625 0.375 2.625 0.375 5 1 C3.68 1.33 2.36 1.66 1 2 C1 2.99 1 3.98 1 5 C2.32 5 3.64 5 5 5 C5 5.99 5 6.98 5 8 C3.00045254 8.04254356 0.99958364 8.04080783 -1 8 C-2 7 -2 7 -2.1875 4.5625 C-2 2 -2 2 0 0 Z " fill="#D6F586" transform="translate(100,44)"/>
<path d="M0 0 C0.66 0.33 1.32 0.66 2 1 C2.09765625 7.15234375 2.09765625 7.15234375 2 9 C1 10 1 10 -2.5625 10.0625 C-3.696875 10.041875 -4.83125 10.02125 -6 10 C-7.42944945 7.64561267 -8.08661261 6.51967567 -7.625 3.75 C-7.41875 3.1725 -7.2125 2.595 -7 2 C-6.34 3.98 -5.68 5.96 -5 8 C-3.35 7.67 -1.7 7.34 0 7 C0 4.69 0 2.38 0 0 Z " fill="#EFFDC6" transform="translate(224,78)"/>
<path d="M0 0 C1.19882813 0.15275391 1.19882813 0.15275391 2.421875 0.30859375 C3.02515625 0.39238281 3.6284375 0.47617188 4.25 0.5625 C4.25 0.8925 4.25 1.2225 4.25 1.5625 C2.27 1.8925 0.29 2.2225 -1.75 2.5625 C-1.42 3.5525 -1.09 4.5425 -0.75 5.5625 C-3.99208567 5.21200425 -5.36527704 5.00028819 -7.5625 2.5 C-8.1503125 1.5409375 -8.1503125 1.5409375 -8.75 0.5625 C-5.62819599 -0.40411363 -3.22916205 -0.42738909 0 0 Z " fill="#D5FB85" transform="translate(98.75,80.4375)"/>
<path d="M0 0 C1.2065625 0.0309375 1.2065625 0.0309375 2.4375 0.0625 C2.7675 0.7225 3.0975 1.3825 3.4375 2.0625 C1.7875 2.7225 0.1375 3.3825 -1.5625 4.0625 C-1.5625 6.3725 -1.5625 8.6825 -1.5625 11.0625 C0.7475 11.0625 3.0575 11.0625 5.4375 11.0625 C5.4375 11.3925 5.4375 11.7225 5.4375 12.0625 C2.7975 12.0625 0.1575 12.0625 -2.5625 12.0625 C-3.7523306 9.6828388 -3.69599966 8.14764265 -3.6875 5.5 C-3.69136719 4.29150391 -3.69136719 4.29150391 -3.6953125 3.05859375 C-3.49237178 0.00851408 -3.0782818 0.07508004 0 0 Z " fill="#F1FED2" transform="translate(100.5625,41.9375)"/>
<path d="M0 0 C0.79664063 0.52400391 0.79664063 0.52400391 1.609375 1.05859375 C2.31578125 1.51363281 3.0221875 1.96867187 3.75 2.4375 C4.44609375 2.88996094 5.1421875 3.34242187 5.859375 3.80859375 C7.92957014 4.9608009 9.68696324 5.54676982 12 6 C12 6.66 12 7.32 12 8 C12.99 8.33 13.98 8.66 15 9 C13 10 13 10 11.08984375 9.51171875 C10.37957031 9.23972656 9.66929687 8.96773437 8.9375 8.6875 C8.22464844 8.42324219 7.51179687 8.15898438 6.77734375 7.88671875 C5 7 5 7 4 5 C3.01 4.67 2.02 4.34 1 4 C0.3125 1.9375 0.3125 1.9375 0 0 Z " fill="#DBFCC5" transform="translate(214,40)"/>
<path d="M0 0 C4.49066035 0.61940143 5.86626183 1.9888787 8.625 5.5 C8.625 6.16 8.625 6.82 8.625 7.5 C7.965 7.5 7.305 7.5 6.625 7.5 C6.295 6.18 5.965 4.86 5.625 3.5 C1.665 3.5 -2.295 3.5 -6.375 3.5 C-3.375 0.5 -3.375 0.5 0 0 Z " fill="#EBFDBE" transform="translate(41.375,44.5)"/>
<path d="M0 0 C5.45949074 1.09189815 6.01471081 1.68791562 9 6 C8.401875 5.690625 7.80375 5.38125 7.1875 5.0625 C4.91043228 3.89790296 4.91043228 3.89790296 2 3 C2 6.63 2 10.26 2 14 C1.67 14 1.34 14 1 14 C0.67 9.38 0.34 4.76 0 0 Z " fill="#A6F15F" transform="translate(197,2)"/>
<path d="M0 0 C0.33 0.99 0.66 1.98 1 3 C-0.08667969 2.96519531 -0.08667969 2.96519531 -1.1953125 2.9296875 C-6.54578244 2.82981206 -10.99446082 2.83544252 -16 5 C-14.6490841 2.2981682 -12.76408314 1.71626566 -10.0546875 0.59765625 C-6.64814487 -0.39322022 -3.52737691 -0.18565142 0 0 Z " fill="#D7F893" transform="translate(216,65)"/>
<path d="M0 0 C1.65 0.33 3.3 0.66 5 1 C4.01 1.33 3.02 1.66 2 2 C2.33 2.99 2.66 3.98 3 5 C3.12781786 7.67394964 3.04391871 10.32095857 3 13 C2.67 13 2.34 13 2 13 C2 11.35 2 9.7 2 8 C1.01 7.67 0.02 7.34 -1 7 C-0.67 4.69 -0.34 2.38 0 0 Z " fill="#E1FCC5" transform="translate(195,0)"/>
<path d="M0 0 C0.66 0.33 1.32 0.66 2 1 C1.67 2.65 1.34 4.3 1 6 C0.34 6 -0.32 6 -1 6 C-1.33 5.34 -1.66 4.68 -2 4 C-5.3 4 -8.6 4 -12 4 C-12 3.67 -12 3.34 -12 3 C-10.82630859 2.80083984 -10.82630859 2.80083984 -9.62890625 2.59765625 C-8.61699219 2.42105469 -7.60507813 2.24445313 -6.5625 2.0625 C-5.55316406 1.88847656 -4.54382813 1.71445313 -3.50390625 1.53515625 C-1.0712562 1.25248903 -1.0712562 1.25248903 0 0 Z " fill="#D5FA87" transform="translate(187,78)"/>
<path d="M0 0 C2.01822917 0.06510417 4.03645833 0.13020833 6.0546875 0.1953125 C6.0546875 0.8553125 6.0546875 1.5153125 6.0546875 2.1953125 C5.3121875 2.1128125 4.5696875 2.0303125 3.8046875 1.9453125 C0.2493208 2.26852765 -0.56650549 3.65791836 -2.9453125 6.1953125 C-3.9353125 6.1953125 -4.9253125 6.1953125 -5.9453125 6.1953125 C-3.20430126 0.32171699 -3.20430126 0.32171699 0 0 Z " fill="#F0FED1" transform="translate(37.9453125,55.8046875)"/>
<path d="M0 0 C-1.58199631 0.64910154 -3.16565724 1.29414694 -4.75 1.9375 C-5.63171875 2.29714844 -6.5134375 2.65679687 -7.421875 3.02734375 C-9.61186104 3.85356576 -11.71898271 4.49369943 -14 5 C-14.33 6.32 -14.66 7.64 -15 9 C-15 7.35 -15 5.7 -15 4 C-13.730447 3.35165346 -12.45930294 2.70642185 -11.1875 2.0625 C-10.47980469 1.70285156 -9.77210938 1.34320313 -9.04296875 0.97265625 C-5.54717095 -0.69169108 -3.67208522 -1.13961265 0 0 Z " fill="#EBFEC3" transform="translate(188,71)"/>
<path d="M0 0 C0 3.65351863 -0.88942301 5.06026776 -3 8 C-4.9375 9.0625 -4.9375 9.0625 -7 10 C-8.37086915 11.29470975 -9.71340837 12.62150897 -11 14 C-9.61085525 9.70281047 -7.61968015 7.29312243 -4.375 4.1875 C-3.55773437 3.39730469 -2.74046875 2.60710937 -1.8984375 1.79296875 C-0.95871094 0.90544922 -0.95871094 0.90544922 0 0 Z " fill="#DEFAA4" transform="translate(27,66)"/>
<path d="M0 0 C-0.33 0.99 -0.66 1.98 -1 3 C-5.455 3.495 -5.455 3.495 -10 4 C-10 3.34 -10 2.68 -10 2 C-6.3558226 -0.4294516 -4.28758728 -0.16179575 0 0 Z " fill="#CCFB65" transform="translate(202,63)"/>
<path d="M0 0 C0.66 0 1.32 0 2 0 C2.66 1.32 3.32 2.64 4 4 C5.32 3.67 6.64 3.34 8 3 C7.67 4.32 7.34 5.64 7 7 C4.625 7.1875 4.625 7.1875 2 7 C0 4 0 4 0 0 Z " fill="#EBFEC5" transform="translate(52,56)"/>
<path d="M0 0 C0.66 2.64 1.32 5.28 2 8 C1.01 8.495 1.01 8.495 0 9 C-0.99 8.34 -1.98 7.68 -3 7 C-3.1875 3.875 -3.1875 3.875 -3 1 C-1 0 -1 0 0 0 Z " fill="#CAFC67" transform="translate(172,75)"/>
<path d="M0 0 C0.33 0 0.66 0 1 0 C1.66 5.94 2.32 11.88 3 18 C2.67 17.34 2.34 16.68 2 16 C1.34 16 0.68 16 0 16 C0 10.72 0 5.44 0 0 Z " fill="#F0FED5" transform="translate(113,66)"/>
<path d="M0 0 C2.33002055 2.33002055 2.41956957 3.24690495 2.8125 6.4375 C2.92207031 7.21996094 3.03164062 8.00242187 3.14453125 8.80859375 C3 11 3 11 0 14 C0 9.38 0 4.76 0 0 Z " fill="#F5FEDF" transform="translate(109,72)"/>
<path d="M0 0 C3.125 -0.1875 3.125 -0.1875 6 0 C6 0.66 6 1.32 6 2 C4.02 2.33 2.04 2.66 0 3 C-0.103125 3.639375 -0.20625 4.27875 -0.3125 4.9375 C-0.539375 5.618125 -0.76625 6.29875 -1 7 C-1.99 7.33 -2.98 7.66 -4 8 C-2.87548273 5.0280615 -1.77706209 2.66559313 0 0 Z " fill="#F5FFDD" transform="translate(68,56)"/>
<path d="M0 0 C1.32 0 2.64 0 4 0 C4 0.99 4 1.98 4 3 C4.99 3.33 5.98 3.66 7 4 C4 6 4 6 0 6 C0 4.02 0 2.04 0 0 Z " fill="#7BF21F" transform="translate(268,48)"/>
<path d="M0 0 C0.75 1.6875 0.75 1.6875 1 4 C-1.9393797 8.68123434 -1.9393797 8.68123434 -5.14453125 9.64453125 C-5.75683594 9.76183594 -6.36914062 9.87914063 -7 10 C-6.02223933 8.51990357 -5.0427506 7.04094856 -4.0625 5.5625 C-3.51722656 4.73878906 -2.97195312 3.91507812 -2.41015625 3.06640625 C-1 1 -1 1 0 0 Z " fill="#F5FEDD" transform="translate(31,62)"/>
<path d="M0 0 C2.31 0.66 4.62 1.32 7 2 C7 2.99 7 3.98 7 5 C4.69 4.67 2.38 4.34 0 4 C0 2.68 0 1.36 0 0 Z " fill="#CAFC65" transform="translate(52,62)"/>
<path d="M0 0 C11.36363636 1.36363636 11.36363636 1.36363636 15 5 C9.33895411 4.50341703 5.12325529 3.45489316 0 1 C0 0.67 0 0.34 0 0 Z " fill="#9FEF57" transform="translate(261,56)"/>
<path d="M0 0 C1 2 1 2 1 6 C2.4166747 7.7511573 2.4166747 7.7511573 4 9 C2.35 9.33 0.7 9.66 -1 10 C-1.66 9.01 -2.32 8.02 -3 7 C-2.34 7 -1.68 7 -1 7 C-1.020625 6.030625 -1.04125 5.06125 -1.0625 4.0625 C-1 1 -1 1 0 0 Z " fill="#88E657" transform="translate(231,41)"/>
<path d="M0 0 C0.66 0.33 1.32 0.66 2 1 C1.67 1.66 1.34 2.32 1 3 C1.66 3.33 2.32 3.66 3 4 C-1.75 8 -1.75 8 -4 8 C-3.40072174 4.64404172 -2.15377564 2.62198774 0 0 Z " fill="#D0FCA1" transform="translate(252,38)"/>
<path d="M0 0 C0.33 1.32 0.66 2.64 1 4 C2.32 4.33 3.64 4.66 5 5 C2.03 7.475 2.03 7.475 -1 10 C-0.67 6.7 -0.34 3.4 0 0 Z " fill="#92EE37" transform="translate(245,37)"/>
<path d="M0 0 C3 1 3 1 4 3 C4.99 3.33 5.98 3.66 7 4 C7.33 4.99 7.66 5.98 8 7 C8.66 7.33 9.32 7.66 10 8 C10 8.99 10 9.98 10 11 C9.34 11 8.68 11 8 11 C6.56197818 9.4089357 5.19674665 7.7513985 3.875 6.0625 C3.15054688 5.14597656 2.42609375 4.22945312 1.6796875 3.28515625 C0 1 0 1 0 0 Z " fill="#E0FEC6" transform="translate(206,7)"/>
<path d="M0 0 C2.0625 0.6875 2.0625 0.6875 4 2 C4.875 4 4.875 4 5 6 C4.34 6.66 3.68 7.32 3 8 C1.35 5.69 -0.3 3.38 -2 1 C-1.34 0.67 -0.68 0.34 0 0 Z " fill="#D1F883" transform="translate(156,72)"/>
<path d="M0 0 C0.99 0.33 1.98 0.66 3 1 C3 1.99 3 2.98 3 4 C4.65 4 6.3 4 8 4 C8 4.66 8 5.32 8 6 C5.125 6.125 5.125 6.125 2 6 C1.34 5.34 0.68 4.68 0 4 C0 2.68 0 1.36 0 0 Z " fill="#F3FED3" transform="translate(120,70)"/>
<path d="M0 0 C-3.01490557 2.00993705 -5.2149927 2.72623341 -8.6875 3.625 C-10.17830078 4.01558594 -10.17830078 4.01558594 -11.69921875 4.4140625 C-12.45847656 4.60742188 -13.21773437 4.80078125 -14 5 C-11.2890625 1.09375 -11.2890625 1.09375 -8.6875 0.25 C-5.7746458 -0.02096318 -2.92381073 -0.0679956 0 0 Z " fill="#EEFDC3" transform="translate(192,62)"/>
<path d="M0 0 C0.99 0 1.98 0 3 0 C1.61122646 3.35620271 0.08322035 5.07298728 -3 7 C-3.66 7 -4.32 7 -5 7 C-4.67 5.35 -4.34 3.7 -4 2 C-3.01 2 -2.02 2 -1 2 C-0.67 1.34 -0.34 0.68 0 0 Z " fill="#73EB23" transform="translate(277,41)"/>
<path d="M0 0 C-1.98 1.32 -3.96 2.64 -6 4 C-6 3.34 -6 2.68 -6 2 C-7.98 2.33 -9.96 2.66 -12 3 C-11 1 -11 1 -9.2578125 0.33203125 C-8.55398438 0.16058594 -7.85015625 -0.01085937 -7.125 -0.1875 C-6.42632812 -0.36667969 -5.72765625 -0.54585937 -5.0078125 -0.73046875 C-3 -1 -3 -1 0 0 Z " fill="#A3EA67" transform="translate(268,25)"/>
<path d="M0 0 C1.32 0.66 2.64 1.32 4 2 C3.67 3.98 3.34 5.96 3 8 C0.9375 6.25 0.9375 6.25 -1 4 C-0.75 1.75 -0.75 1.75 0 0 Z " fill="#63EA10" transform="translate(230,30)"/>
<path d="M0 0 C1.65 0.33 3.3 0.66 5 1 C5.33 1.99 5.66 2.98 6 4 C3.69 4 1.38 4 -1 4 C-0.67 2.68 -0.34 1.36 0 0 Z " fill="#F5FEE4" transform="translate(167,84)"/>
<path d="M0 0 C0.99 0 1.98 0 3 0 C3 0.66 3 1.32 3 2 C5.31 2 7.62 2 10 2 C10 2.33 10 2.66 10 3 C6.37 3.66 2.74 4.32 -1 5 C-0.67 3.35 -0.34 1.7 0 0 Z " fill="#F4FED9" transform="translate(204,62)"/>
<path d="M0 0 C0.66 0.33 1.32 0.66 2 1 C1.04882866 2.1725131 0.08882991 3.33787015 -0.875 4.5 C-1.40867188 5.1496875 -1.94234375 5.799375 -2.4921875 6.46875 C-2.98976562 6.9740625 -3.48734375 7.479375 -4 8 C-4.66 8 -5.32 8 -6 8 C-6 5 -6 5 -4.6875 3.61328125 C-3.125 2.40885417 -1.5625 1.20442708 0 0 Z " fill="#F6FEE1" transform="translate(136,75)"/>
<path d="M0 0 C0 0.66 0 1.32 0 2 C-5.75 5 -5.75 5 -8 5 C-8 3.68 -8 2.36 -8 1 C-2.25 0 -2.25 0 0 0 Z " fill="#EBFCC5" transform="translate(192,75)"/>
<path d="M0 0 C2 1 2 1 2.875 3.4375 C3.77050152 6.13605515 3.77050152 6.13605515 6.125 7.3125 C6.74375 7.539375 7.3625 7.76625 8 8 C1.125 7.125 1.125 7.125 0 6 C-0.04080783 4.00041636 -0.04254356 1.99954746 0 0 Z " fill="#D4F987" transform="translate(118,69)"/>
<path d="M0 0 C0.8971875 0.309375 0.8971875 0.309375 1.8125 0.625 C0.57305724 1.49441494 -0.67957059 2.34505457 -1.9375 3.1875 C-2.63359375 3.66316406 -3.3296875 4.13882813 -4.046875 4.62890625 C-6.1875 5.625 -6.1875 5.625 -8.453125 5.27734375 C-9.02546875 5.06207031 -9.5978125 4.84679687 -10.1875 4.625 C-9.424375 4.17125 -8.66125 3.7175 -7.875 3.25 C-1.94777397 -0.33390411 -1.94777397 -0.33390411 0 0 Z " fill="#D9FA8D" transform="translate(138.1875,69.375)"/>
<path d="M0 0 C1 3 1 3 -0.25 5.6875 C-0.8275 6.450625 -1.405 7.21375 -2 8 C-2.99 8 -3.98 8 -5 8 C-5 7.34 -5 6.68 -5 6 C-4.34 6 -3.68 6 -3 6 C-2.87625 5.38125 -2.7525 4.7625 -2.625 4.125 C-2 2 -2 2 0 0 Z " fill="#D7FA8F" transform="translate(31,52)"/>
<path d="M0 0 C3.82946843 1.45255699 5.12050295 3.42895561 7 7 C5.35 6.67 3.7 6.34 2 6 C1.34 4.02 0.68 2.04 0 0 Z " fill="#DFFDC5" transform="translate(204,31)"/>
<path d="M0 0 C-0.33 0.99 -0.66 1.98 -1 3 C-1.99 3.33 -2.98 3.66 -4 4 C-4 3.34 -4 2.68 -4 2 C-5.98 2 -7.96 2 -10 2 C-6.5980513 -0.09350689 -3.94727588 -0.17942163 0 0 Z " fill="#A2EF5E" transform="translate(294,27)"/>
<path d="M0 0 C2.7558573 4.13378595 3.10756445 6.05203546 3 11 C1 10 1 10 0 7 C-0.03954234 4.66700175 -0.04401732 2.33291811 0 0 Z " fill="#7DE927" transform="translate(199,11)"/>
<path d="M0 0 C5.75 0.75 5.75 0.75 8 3 C7.67 3.99 7.34 4.98 7 6 C5.83054208 5.19152271 4.66449539 4.37810888 3.5 3.5625 C2.8503125 3.11003906 2.200625 2.65757813 1.53125 2.19140625 C1.0259375 1.79824219 0.520625 1.40507813 0 1 C0 0.67 0 0.34 0 0 Z " fill="#ECFEC3" transform="translate(152,68)"/>
<path d="M0 0 C1.32 0.33 2.64 0.66 4 1 C4 1.66 4 2.32 4 3 C3.34 3 2.68 3 2 3 C2 3.99 2 4.98 2 6 C2.66 6 3.32 6 4 6 C4 6.99 4 7.98 4 9 C3.34 9 2.68 9 2 9 C1.34 6.03 0.68 3.06 0 0 Z " fill="#D1F978" transform="translate(82,65)"/>
<path d="M0 0 C2.5 1.3125 2.5 1.3125 5 3 C5 3.99 5 4.98 5 6 C2.69 6 0.38 6 -2 6 C-2 5.67 -2 5.34 -2 5 C-0.35 5 1.3 5 3 5 C3 4.34 3 3.68 3 3 C2.01 2.67 1.02 2.34 0 2 C0 1.34 0 0.68 0 0 Z " fill="#7CE924" transform="translate(278,55)"/>
<path d="M0 0 C1.6266848 0.28211877 3.25132896 0.57602375 4.875 0.875 C5.77992188 1.03742187 6.68484375 1.19984375 7.6171875 1.3671875 C10 2 10 2 12 4 C7.12335991 4.34833144 4.22949995 3.41685712 0 1 C0 0.67 0 0.34 0 0 Z " fill="#E3FEBF" transform="translate(254,55)"/>
<path d="M0 0 C0.66 0.33 1.32 0.66 2 1 C0 3 0 3 -2.4375 3.3125 C-5.39279457 2.95209822 -6.18887927 2.28773145 -8 0 C-5.11541362 -1.44229319 -3.09360585 -0.64450122 0 0 Z " fill="#6FD630" transform="translate(240,51)"/>
<path d="M0 0 C0.66 0.99 1.32 1.98 2 3 C-1.465 4.485 -1.465 4.485 -5 6 C-4.67 4.35 -4.34 2.7 -4 1 C-3.01 1 -2.02 1 -1 1 C-0.67 0.67 -0.34 0.34 0 0 Z " fill="#B2F86D" transform="translate(247,44)"/>
<path d="M0 0 C0.66 0 1.32 0 2 0 C1.64950425 3.24208567 1.43778819 4.61527704 -1.0625 6.8125 C-1.701875 7.204375 -2.34125 7.59625 -3 8 C-3 6.68 -3 5.36 -3 4 C-2.01 4 -1.02 4 0 4 C-0.33 3.01 -0.66 2.02 -1 1 C-0.67 0.67 -0.34 0.34 0 0 Z " fill="#88F025" transform="translate(257,29)"/>
<path d="M0 0 C0.66 0 1.32 0 2 0 C2.12375 0.969375 2.2475 1.93875 2.375 2.9375 C2.684375 4.4534375 2.684375 4.4534375 3 6 C3.66 6.33 4.32 6.66 5 7 C3.68 7.33 2.36 7.66 1 8 C0.67 5.36 0.34 2.72 0 0 Z " fill="#F7FEEA" transform="translate(106,44)"/>
<path d="M0 0 C0.66 0.33 1.32 0.66 2 1 C1.375 2.9375 1.375 2.9375 0 5 C-3.125 5.75 -3.125 5.75 -6 6 C-4 4 -2 2 0 0 Z " fill="#CFFBAF" transform="translate(281,41)"/>
<path d="M0 0 C0.66 0.33 1.32 0.66 2 1 C1.67 2.65 1.34 4.3 1 6 C0.01 6 -0.98 6 -2 6 C-1.125 1.125 -1.125 1.125 0 0 Z " fill="#56EC04" transform="translate(230,34)"/>
<path d="M0 0 C1.32 0.33 2.64 0.66 4 1 C4 3.64 4 6.28 4 9 C1.49701566 6.06171403 0.53069061 3.82097239 0 0 Z " fill="#E3FFCB" transform="translate(220,25)"/>
<path d="M0 0 C0.66 0.33 1.32 0.66 2 1 C0.02 3.31 -1.96 5.62 -4 8 C-4 4.87099787 -3.57548683 3.62581138 -2 1 C-1.34 0.67 -0.68 0.34 0 0 Z " fill="#EBFEC7" transform="translate(23,60)"/>
<path d="M0 0 C1.32 0 2.64 0 4 0 C3.67 1.32 3.34 2.64 3 4 C1.68 4 0.36 4 -1 4 C-0.67 2.68 -0.34 1.36 0 0 Z " fill="#70F502" transform="translate(270,53)"/>
<path d="M0 0 C0.99 0 1.98 0 3 0 C2.01 3.3 1.02 6.6 0 10 C-0.33 10 -0.66 10 -1 10 C-0.67 6.7 -0.34 3.4 0 0 Z " fill="#DDFEC3" transform="translate(225,16)"/>
<path d="M0 0 C0.66 0 1.32 0 2 0 C2 0.66 2 1.32 2 2 C2.99 1.67 3.98 1.34 5 1 C5.66 2.98 6.32 4.96 7 7 C1.125 3.375 1.125 3.375 0 0 Z " fill="#F2FCE9" transform="translate(199,0)"/>
</svg>
